<svg xmlns="http://www.w3.org/2000/svg" width="24" height="24" viewBox="0 0 24 24">
  <path id="ic_picture_as_pdf_24px" d="M23.6,2H9.2A2.407,2.407,0,0,0,6.8,4.4V18.8a2.407,2.407,0,0,0,2.4,2.4H23.6A2.407,2.407,0,0,0,26,18.8V4.4A2.407,2.407,0,0,0,23.6,2ZM13.4,11a1.8,1.8,0,0,1-1.8,1.8H10.4v2.4H8.6V8h3a1.8,1.8,0,0,1,1.8,1.8Zm6,2.4a1.8,1.8,0,0,1-1.8,1.8h-3V8h3a1.8,1.8,0,0,1,1.8,1.8Zm4.8-3.6H22.4V11h1.8v1.8H22.4v2.4H20.6V8h3.6ZM10.4,11h1.2V9.8H10.4Zm-6-4.2H2V23.6A2.407,2.407,0,0,0,4.4,26H21.2V23.6H4.4Zm12,6.6h1.2V9.8H16.4Z" transform="translate(-2 -2)" fill="#fff"/>
</svg>
