<svg xmlns="http://www.w3.org/2000/svg" width="25" height="25" viewBox="0 0 25 25">
  <path id="ic_settings_applications_24px" d="M15.5,12.722A2.778,2.778,0,1,0,18.278,15.5,2.786,2.786,0,0,0,15.5,12.722ZM25.222,3H5.778A2.777,2.777,0,0,0,3,5.778V25.222A2.777,2.777,0,0,0,5.778,28H25.222A2.777,2.777,0,0,0,28,25.222V5.778A2.777,2.777,0,0,0,25.222,3ZM22.792,15.5a7.03,7.03,0,0,1-.069.944l2.056,1.611a.491.491,0,0,1,.111.625l-1.944,3.361a.491.491,0,0,1-.6.208l-2.417-.972a7.448,7.448,0,0,1-1.639.958l-.361,2.569a.5.5,0,0,1-.486.417H13.556a.505.505,0,0,1-.486-.4l-.361-2.569a7.142,7.142,0,0,1-1.639-.958l-2.417.972a.491.491,0,0,1-.6-.208L6.111,18.694a.491.491,0,0,1,.111-.625l2.056-1.611a7.413,7.413,0,0,1-.069-.958,7.029,7.029,0,0,1,.069-.944L6.222,12.944a.491.491,0,0,1-.111-.625L8.056,8.958a.491.491,0,0,1,.6-.208l2.417.972a7.449,7.449,0,0,1,1.639-.958l.361-2.569a.5.5,0,0,1,.486-.417h3.889a.505.505,0,0,1,.486.4l.361,2.569a7.142,7.142,0,0,1,1.639.958l2.417-.972a.491.491,0,0,1,.6.208l1.944,3.361a.491.491,0,0,1-.111.625l-2.056,1.611a7.413,7.413,0,0,1,.069.958Z" transform="translate(-3 -3)" fill="#fff"/>
</svg>
